<?xml version="1.0" encoding="UTF-8"?><svg id="Layer_1" xmlns="http://www.w3.org/2000/svg" viewBox="0 0 769.73 836.78"><defs><style>.cls-1{fill:#74c059;}</style></defs><path class="cls-1" d="M272.32,456.12l112.57-220.84h-94.52l-120.3,253.49V235.29h-25.41l-16.57,46.53c-18.88,7.49-58.74-4.48-58.74-4.48,.2-3.91,1.13-8.06,2.55-12.26,.9-2.65-.98-5.49-3.97-6.04l-.65-.12c-1.27-.23-2.55,.02-3.63,.62-3.84,2.14-8.55,3.02-13.39,2.16-7.19-1.28-12.77-6.05-15.04-12.02C11.91,265.78-2.48,293.65,.36,324.22l4.29,46.18c2.48-1.37,5.33-2.22,8.39-2.4,3.74-.21,7.3,.57,10.4,2.09,3.18,1.56,6.72,2.36,10.26,2.09l.96-.07c6.8-.52,12.66-4.42,15.29-10.16,2.35-5.13,4.08-8.33,4.08-8.33,13.17,3.46,32.08,2.45,47.99,.51l-6.03,54c-16.63,11.03-58.08,6.98-58.08,6.98-.7-3.89-.74-8.15-.32-12.55,.27-2.78-2.2-5.21-5.24-5.17h-.66c-1.28,.03-2.47,.52-3.39,1.32-3.24,2.85-7.62,4.62-12.52,4.72-2.91,.05-5.69-.5-8.22-1.52l4.4,47.33c2.08-1.73,4.63-3.01,7.53-3.62,3.31-.69,6.63-.46,9.64,.51,3.1,.99,6.39,1.24,9.52,.53l.85-.19c6.01-1.38,10.65-5.68,12.11-11.23,1.3-4.95,2.35-8.08,2.35-8.08,12.35,1.38,29.13-2.05,43.08-5.92l3.06,49.65c-13.18,12.19-50.94,14.03-50.94,14.03-1.24-3.42-1.94-7.27-2.25-11.31-.2-2.55-2.79-4.42-5.5-3.98l-.59,.1c-1.15,.19-2.13,.79-2.83,1.64-2.46,3.01-6.1,5.2-10.48,5.93-4.74,.8-9.42-.28-13.18-2.63l3.71,39.88c1.53-1.09,3.27-1.97,5.21-2.53,3.24-.94,6.55-.95,9.63-.21,3.17,.76,6.47,.77,9.52-.18l.82-.26c5.86-1.82,10.09-6.47,11.05-12.12,.86-5.04,1.63-8.25,1.63-8.25,12.4,.46,28.78-4.22,42.31-9.13l7.41,49.38c-12.03,13.16-49.42,17.82-49.42,17.82-1.53-3.33-2.57-7.12-3.24-11.14-.42-2.53-3.16-4.21-5.82-3.57l-.58,.14c-1.12,.27-2.05,.95-2.67,1.85-2.18,3.19-5.61,5.65-9.89,6.71-4.69,1.16-9.49,.42-13.47-1.71l11.77,126.68c5.69,61.22,40.07,115.42,91.57,146.92,1.95-8.25,2.05-19.11-1.98-33.25l-.38,.06c-.71,.11-1.35,.46-1.78,.98-1.59,1.92-3.95,3.3-6.76,3.73-6.28,.97-12.37-3.14-13.24-9.09-.77-5.26,3-10.14,8.6-11.15,2.12-.38,4.23-.18,6.14,.49,1.89,.66,3.94,.77,5.88,.35l.54-.12c3.85-.83,6.83-3.54,7.81-7.06,.87-3.13,1.57-5.11,1.57-5.11,7.85,.97,18.56-1.07,27.47-3.43l.98,20.86c.72,15.19-3.79,30.15-13.3,42.29-2.2,2.81-4.75,5.57-7.69,8.2,3.95,1.99,7.98,3.85,12.1,5.58l20.21,8.49v-191.62l37.81-76.48,79.91,268.09h98.82l-114.28-380.66Zm-167.34-112.25c-18.05,9.01-58.78,.28-58.78,.28-.18-3.92,.35-8.14,1.36-12.45,.64-2.72-1.49-5.4-4.52-5.71l-.66-.07c-1.28-.13-2.53,.22-3.55,.91-3.61,2.45-8.21,3.7-13.1,3.24-11-1.05-19.16-10.4-17.65-20.58,1.31-8.87,9.91-15.31,19.66-14.75,3.75,.22,7.2,1.39,10.08,3.25,2.96,1.91,6.38,3.1,9.94,3.24l.96,.04c6.85,.26,13.2-2.92,16.6-8.31,3.03-4.8,5.19-7.77,5.19-7.77,12.66,4.92,31.62,6.08,47.73,5.97l-13.25,52.7ZM31.7,596.87c-2.59-7.2,1.18-15.03,8.61-17.93,2.86-1.11,5.88-1.39,8.75-.96,2.95,.44,5.96,.19,8.65-.92l.73-.3c5.16-2.14,8.58-6.72,8.93-11.98,.31-4.69,.71-7.68,.71-7.68,11.33-.57,25.81-6.15,37.67-11.72l11.36,44.63c-9.72,13.01-43.33,20.24-43.33,20.24-1.71-2.92-3.01-6.31-3.99-9.94-.62-2.29-3.27-3.6-5.63-2.8l-.52,.18c-1,.34-1.78,1.03-2.26,1.91-1.69,3.09-4.58,5.62-8.38,6.93-8.55,2.95-18.33-1.39-21.31-9.65Zm45.18,63.41c-7.36,3.31-16.49,.17-19.89-7.01-2.97-6.26-.32-13.58,6.05-16.75,2.45-1.22,5.12-1.7,7.72-1.54,2.68,.17,5.33-.29,7.63-1.5l.62-.33c4.41-2.32,7.04-6.7,6.88-11.44-.15-4.23-.06-6.95-.06-6.95,10.06-1.38,22.47-7.51,32.55-13.43l14.2,39.17c-7.49,12.43-36.82,21.52-36.82,21.52-1.79-2.49-3.26-5.43-4.46-8.61-.76-2-3.25-2.98-5.28-2.08l-.44,.2c-.86,.38-1.49,1.06-1.84,1.88-1.22,2.91-3.57,5.39-6.85,6.87Zm6.44,42.76c-3.2-5.68-1.26-12.68,4.45-16.03,2.19-1.29,4.64-1.9,7.08-1.9,2.5,0,4.95-.59,7-1.86l.55-.34c3.95-2.43,6.08-6.68,5.59-11.11-.44-3.95-.55-6.49-.55-6.49,9.27-1.9,20.39-8.38,29.35-14.51l16,35.77c-6.09,12.07-32.76,22.33-32.76,22.33-1.84-2.22-3.42-4.89-4.77-7.78-.85-1.83-3.24-2.59-5.06-1.63l-.4,.21c-.77,.41-1.32,1.08-1.58,1.87-.93,2.79-2.95,5.26-5.89,6.83-6.62,3.54-15.34,1.15-19.02-5.36Zm41.44,48.93c-1.17-2.2-2.02-4.73-2.63-7.42-.38-1.7-2.3-2.74-4.07-2.21l-.39,.12c-.75,.22-1.35,.71-1.73,1.34-1.34,2.23-3.56,4.01-6.4,4.87-6.4,1.94-13.48-1.52-15.41-7.68-1.68-5.37,1.35-11.03,6.92-12.96,2.14-.74,4.38-.86,6.49-.47,2.17,.41,4.39,.3,6.41-.45l.55-.2c3.88-1.43,6.55-4.72,6.97-8.57,.38-3.44,.77-5.63,.77-5.63,8.38-.11,19.24-3.83,28.17-7.61l6.96,33.16c-7.59,9.31-32.61,13.73-32.61,13.73Z"/><path class="cls-1" d="M377.9,235.29h134.91l60.15,430.5h1.72l60.15-430.5h134.91V836.78h-89.37V381.36h-1.72l-68.74,455.42h-79.05l-68.74-455.42h-1.72v455.42h-82.49V235.29Z"/><g><path class="cls-1" d="M57.46,2.71h114.97v13.56H72.1V87.85h94.09v13.56H72.1v91.11h-14.64V2.71Z"/><path class="cls-1" d="M261.36,192.52V121.21c0-1.63-.54-3.53-1.08-4.34L192.49,2.71h17.08c18.98,32.27,52.06,88.4,60.2,102.5,8.13-14.1,41.49-69.69,61.82-102.5h16.27l-70.77,115.24c-.54,1.08-.81,2.17-.81,4.07v70.5h-14.91Z"/><path class="cls-1" d="M363.59,180.32L486.69,16.27h-116.6V2.71h133.95V15.46l-122.29,163.51h124.73l-2.44,13.56h-140.46v-12.2Z"/><path class="cls-1" d="M554.48,2.71V192.52h-14.64V2.71h14.64Z"/><path class="cls-1" d="M767.06,96.26c0,51.79-27.66,98.97-86.23,98.97-53.42,0-84.6-43.11-84.6-97.62S626.33,0,682.73,0c52.06,0,84.33,40.95,84.33,96.26Zm-155.1,.54c0,43.66,24.13,84.87,69.69,84.87,49.08,0,69.69-40.13,69.69-85.14s-23.32-82.97-69.15-82.97c-48.81,0-70.23,40.4-70.23,83.25Z"/></g></svg>